<svg width="332" height="199" viewBox="0 0 332 199" fill="none" xmlns="http://www.w3.org/2000/svg">
<path d="M181.177 61.3028H163.154H145.131L92.0114 153.729H58.8114H3.31995L28.4571 107.516H55.4914L77.3085 67.9047H106.24L128.057 31.1406H234.297L199.2 90.5397L181.177 61.3028Z" fill="#216F9D"/>
<path d="M182.126 125.435H218.171L272.24 31.1406H246.154L300.697 3.77197L331.526 31.1406H306.863L237.143 153.729H129.006L164.103 94.3123L182.126 125.435Z" fill="#216F9D"/>
<path d="M15.6401 163.131H29.5271V189.569H21.4681L10.9048 174.358V189.569H4.2572V163.131H11.5878L22.8796 179.202V169.831H20.1477L15.6401 163.131Z" fill="#216F9D"/>
<path d="M53.4386 179.654H39.0962V182.869H57.3088V189.569H32.4486V173.045H53.4386V179.654ZM32.4486 169.831V163.131H57.3088V169.831H32.4486Z" fill="#216F9D"/>
<path d="M86.7826 163.131L77.312 176.35L86.7826 189.569H78.4048L73.1687 182.19L67.8415 189.569H59.5548L68.9798 176.35L59.5548 163.131H67.8415L73.1687 170.555L78.4048 163.131H86.7826Z" fill="#216F9D"/>
<path d="M88.9627 163.131H111.455V169.831H103.533V189.569H96.8852V169.831H88.9627V163.131Z" fill="#216F9D"/>
<path d="M132.938 189.569V182.869H145.869L133.94 170.917C133.302 169.801 132.983 168.548 132.983 167.16C132.983 166.737 133.075 166.285 133.257 165.802C133.439 165.319 133.682 164.881 133.985 164.489C134.289 164.097 134.607 163.78 134.941 163.538C135.306 163.267 135.655 163.131 135.989 163.131H155.795V169.831H142.682L154.839 181.918C155.172 182.431 155.415 183.02 155.567 183.684C155.719 184.347 155.795 184.981 155.795 185.585C155.795 186.038 155.719 186.505 155.567 186.988C155.415 187.441 155.218 187.863 154.975 188.256C154.763 188.618 154.505 188.935 154.201 189.206C153.928 189.448 153.64 189.569 153.336 189.569H132.938Z" fill="#216F9D"/>
<path d="M158.727 163.131H181.22V169.831H173.297V189.569H166.65V169.831H158.727V163.131Z" fill="#216F9D"/>
<path d="M205.106 179.654H190.764V182.869H208.976V189.569H184.116V173.045H205.106V179.654ZM184.116 169.831V163.131H208.976V169.831H184.116Z" fill="#216F9D"/>
<path d="M211.951 163.131H234.671C235.126 163.282 235.551 163.538 235.946 163.9C236.371 164.232 236.659 164.7 236.811 165.304V181.013C236.72 181.646 236.492 182.159 236.128 182.552C235.764 182.944 235.233 183.14 234.535 183.14H221.467V176.486H230.255V169.831H218.599V189.569H211.951V163.131Z" fill="#216F9D"/>
</svg>
